<?plantuml 1.2026.2beta3?><svg xmlns="http://www.w3.org/2000/svg" xmlns:xlink="http://www.w3.org/1999/xlink" contentStyleType="text/css" data-diagram-type="ACTIVITY" height="910px" preserveAspectRatio="none" style="width:1264px;height:910px;background:#FFFFFF;" version="1.1" viewBox="0 0 1264 910" width="1264px" zoomAndPan="magnify"><title>UC-02: Robot Completes a Task</title><defs/><g><g class="title" data-source-line="11"><text fill="#000000" font-family="Hack" font-size="22" font-weight="bold" lengthAdjust="spacing" textLength="389.9736" x="435.5219" y="35.4209">UC-02: Robot Completes a Task</text></g><ellipse cx="578.8835" cy="61.6094" fill="#FFFFFF" rx="10" ry="10" style="stroke:#000000;stroke-width:1;"/><rect fill="#FFFFFF" height="47.9375" rx="12.5" ry="12.5" style="stroke:#000000;stroke-width:1;" width="228.541" x="464.613" y="91.6094"/><text fill="#000000" font-family="Hack" font-size="12" lengthAdjust="spacing" textLength="208.541" x="474.613" y="112.748">Robot checks battery level against</text><text fill="#000000" font-family="Hack" font-size="12" lengthAdjust="spacing" textLength="166.6699" x="474.613" y="126.7168">task.duration_s * drain_rate</text><polygon fill="#FFFFFF" points="523.9519,159.5469,633.8152,159.5469,645.8152,171.5469,633.8152,183.5469,523.9519,183.5469,511.9519,171.5469,523.9519,159.5469" style="stroke:#000000;stroke-width:1;"/><text fill="#000000" font-family="Hack" font-size="12" lengthAdjust="spacing" textLength="109.8633" x="523.9519" y="175.7012">Battery sufficient?</text><text fill="#000000" font-family="Hack" font-size="12" lengthAdjust="spacing" textLength="20.7363" x="491.2156" y="168.7168">yes</text><text fill="#000000" font-family="Hack" font-size="12" lengthAdjust="spacing" textLength="14.9473" x="645.8152" y="168.7168">no</text><rect fill="#FFFFFF" height="33.9688" rx="12.5" ry="12.5" style="stroke:#000000;stroke-width:1;" width="206.6797" x="186.2185" y="193.5469"/><text fill="#000000" font-family="Hack" font-size="12" lengthAdjust="spacing" textLength="186.6797" x="196.2185" y="214.6855">Robot navigates to target zone</text><rect fill="#FFFFFF" height="33.9688" rx="12.5" ry="12.5" style="stroke:#000000;stroke-width:1;" width="241.9824" x="168.5671" y="251.4844"/><text fill="#000000" font-family="Hack" font-size="12" lengthAdjust="spacing" textLength="221.9824" x="178.5671" y="272.623">Robot picks up object at source zone</text><rect fill="#FFFFFF" height="33.9688" rx="12.5" ry="12.5" style="stroke:#000000;stroke-width:1;" width="236.1055" x="171.5056" y="309.4219"/><text fill="#000000" font-family="Hack" font-size="12" lengthAdjust="spacing" textLength="216.1055" x="181.5056" y="330.5605">Robot delivers object to target zone</text><path d="M366.8025,378.3906 L366.8025,393.3594 L346.8025,397.3594 L366.8025,401.3594 L366.8025,416.3281 A0,0 0 0 0 366.8025,416.3281 L632.0447,416.3281 A0,0 0 0 0 632.0447,416.3281 L632.0447,388.3906 L622.0447,378.3906 L366.8025,378.3906 A0,0 0 0 0 366.8025,378.3906" fill="#FFFFFF" style="stroke:#000000;stroke-width:1;"/><path d="M622.0447,378.3906 L622.0447,388.3906 L632.0447,388.3906 L622.0447,378.3906" fill="#FFFFFF" style="stroke:#000000;stroke-width:1;"/><text fill="#000000" font-family="Hack" font-size="12" lengthAdjust="spacing" textLength="183.668" x="372.8025" y="394.5293">Sets task.status = 'completed'</text><text fill="#000000" font-family="Hack" font-size="12" lengthAdjust="spacing" textLength="244.2422" x="372.8025" y="408.498">Triggers team.update_score(task.points)</text><rect fill="#FFFFFF" height="33.9688" rx="12.5" ry="12.5" style="stroke:#000000;stroke-width:1;" width="114.4883" x="232.3142" y="380.375"/><text fill="#000000" font-family="Hack" font-size="12" lengthAdjust="spacing" textLength="94.4883" x="242.3142" y="401.5137">task.complete()</text><rect fill="#FFFFFF" height="33.9688" rx="12.5" ry="12.5" style="stroke:#000000;stroke-width:1;" width="192.3066" x="193.405" y="445.3281"/><text fill="#000000" font-family="Hack" font-size="12" lengthAdjust="spacing" textLength="172.3066" x="203.405" y="466.4668">robot.tasks_completed += 1</text><rect fill="#FFFFFF" height="33.9688" rx="12.5" ry="12.5" style="stroke:#000000;stroke-width:1;" width="153.3828" x="212.8669" y="499.2969"/><text fill="#000000" font-family="Hack" font-size="12" lengthAdjust="spacing" textLength="133.3828" x="222.8669" y="520.4355">robot.status = 'active'</text><rect fill="#FFFFFF" height="33.9688" rx="12.5" ry="12.5" style="stroke:#000000;stroke-width:1;" width="197.6914" x="190.7126" y="553.2656"/><text fill="#000000" font-family="Hack" font-size="12" lengthAdjust="spacing" textLength="177.6914" x="200.7126" y="574.4043">Evaluate battery trigger rules</text><polygon fill="#FFFFFF" points="247.9978,607.2344,331.1189,607.2344,343.1189,619.2344,331.1189,631.2344,247.9978,631.2344,235.9978,619.2344,247.9978,607.2344" style="stroke:#000000;stroke-width:1;"/><text fill="#000000" font-family="Hack" font-size="12" lengthAdjust="spacing" textLength="83.1211" x="247.9978" y="623.3887">battery &lt; 10?</text><text fill="#000000" font-family="Hack" font-size="12" lengthAdjust="spacing" textLength="20.7363" x="215.2615" y="616.4043">yes</text><text fill="#000000" font-family="Hack" font-size="12" lengthAdjust="spacing" textLength="14.9473" x="343.1189" y="616.4043">no</text><polygon fill="#FFFFFF" points="106.481,641.2344,192.022,641.2344,204.022,653.2344,192.022,665.2344,106.481,665.2344,94.481,653.2344,106.481,641.2344" style="stroke:#000000;stroke-width:1;"/><text fill="#000000" font-family="Hack" font-size="12" lengthAdjust="spacing" textLength="85.541" x="106.481" y="657.3887">battery == 0?</text><text fill="#000000" font-family="Hack" font-size="12" lengthAdjust="spacing" textLength="20.7363" x="73.7446" y="650.4043">yes</text><text fill="#000000" font-family="Hack" font-size="12" lengthAdjust="spacing" textLength="14.9473" x="204.022" y="650.4043">no</text><rect fill="#FFFFFF" height="33.9688" rx="12.5" ry="12.5" style="stroke:#000000;stroke-width:1;" width="118.6016" x="6" y="675.2344"/><text fill="#000000" font-family="Hack" font-size="12" lengthAdjust="spacing" textLength="98.6016" x="16" y="696.373">status = 'offline'</text><rect fill="#FFFFFF" height="33.9688" rx="12.5" ry="12.5" style="stroke:#000000;stroke-width:1;" width="177.2012" x="144.6016" y="675.2344"/><text fill="#000000" font-family="Hack" font-size="12" lengthAdjust="spacing" textLength="157.2012" x="154.6016" y="696.373">status = 'needs_recharge'</text><polygon fill="#FFFFFF" points="149.2515,715.2031,161.2515,727.2031,149.2515,739.2031,137.2515,727.2031,149.2515,715.2031" style="stroke:#000000;stroke-width:1;"/><rect fill="#FFFFFF" height="33.9688" rx="12.5" ry="12.5" style="stroke:#000000;stroke-width:1;" width="156.125" x="351.8027" y="641.2344"/><text fill="#000000" font-family="Hack" font-size="12" lengthAdjust="spacing" textLength="136.125" x="361.8027" y="662.373">status remains 'active'</text><polygon fill="#FFFFFF" points="289.5583,745.2031,301.5583,757.2031,289.5583,769.2031,277.5583,757.2031,289.5583,745.2031" style="stroke:#000000;stroke-width:1;"/><path d="M964.7156,193.5469 L964.7156,208.5156 L944.7156,212.5156 L964.7156,216.5156 L964.7156,231.4844 A0,0 0 0 0 964.7156,231.4844 L1113.116,231.4844 A0,0 0 0 0 1113.116,231.4844 L1113.116,203.5469 L1103.116,193.5469 L964.7156,193.5469 A0,0 0 0 0 964.7156,193.5469" fill="#FFFFFF" style="stroke:#000000;stroke-width:1;"/><path d="M1103.116,193.5469 L1103.116,203.5469 L1113.116,203.5469 L1103.116,193.5469" fill="#FFFFFF" style="stroke:#000000;stroke-width:1;"/><text fill="#000000" font-family="Hack" font-size="12" lengthAdjust="spacing" textLength="114.1582" x="970.7156" y="209.6855">Sets battery = 100</text><text fill="#000000" font-family="Hack" font-size="12" lengthAdjust="spacing" textLength="127.4004" x="970.7156" y="223.6543">Sets status = 'active'</text><rect fill="#FFFFFF" height="33.9688" rx="12.5" ry="12.5" style="stroke:#000000;stroke-width:1;" width="153.0137" x="791.7019" y="195.5313"/><text fill="#000000" font-family="Hack" font-size="12" lengthAdjust="spacing" textLength="133.0137" x="801.7019" y="216.6699">Robot calls recharge()</text><rect fill="#FFFFFF" height="33.9688" rx="12.5" ry="12.5" style="stroke:#000000;stroke-width:1;" width="234.5645" x="750.9265" y="255.4531"/><text fill="#000000" font-family="Hack" font-size="12" lengthAdjust="spacing" textLength="214.5645" x="760.9265" y="276.5918">Re-check battery against task drain</text><polygon fill="#FFFFFF" points="768.2595,313.3906,968.158,313.3906,980.158,325.3906,968.158,337.3906,768.2595,337.3906,756.2595,325.3906,768.2595,313.3906" style="stroke:#000000;stroke-width:1;"/><text fill="#000000" font-family="Hack" font-size="12" lengthAdjust="spacing" textLength="199.8984" x="768.2595" y="329.5449">Battery sufficient after recharge?</text><text fill="#000000" font-family="Hack" font-size="12" lengthAdjust="spacing" textLength="20.7363" x="735.5232" y="322.5605">yes</text><text fill="#000000" font-family="Hack" font-size="12" lengthAdjust="spacing" textLength="14.9473" x="980.158" y="322.5605">no</text><rect fill="#FFFFFF" height="47.9375" rx="12.5" ry="12.5" style="stroke:#000000;stroke-width:1;" width="168.4297" x="662.0447" y="347.3906"/><text fill="#000000" font-family="Hack" font-size="12" lengthAdjust="spacing" textLength="140.5957" x="672.0447" y="368.5293">Resume task execution</text><text fill="#000000" font-family="Hack" font-size="12" lengthAdjust="spacing" textLength="148.4297" x="672.0447" y="382.498">(return to navigate step)</text><path d="M1058.8123,347.3906 L1058.8123,362.3594 L1038.8123,366.3594 L1058.8123,370.3594 L1058.8123,385.3281 A0,0 0 0 0 1058.8123,385.3281 L1257.0173,385.3281 A0,0 0 0 0 1257.0173,385.3281 L1257.0173,357.3906 L1247.0173,347.3906 L1058.8123,347.3906 A0,0 0 0 0 1058.8123,347.3906" fill="#FFFFFF" style="stroke:#000000;stroke-width:1;"/><path d="M1247.0173,347.3906 L1247.0173,357.3906 L1257.0173,357.3906 L1247.0173,347.3906" fill="#FFFFFF" style="stroke:#000000;stroke-width:1;"/><text fill="#000000" font-family="Hack" font-size="12" lengthAdjust="spacing" textLength="177.2051" x="1064.8123" y="363.5293">Sets task.status = 'cancelled'</text><text fill="#000000" font-family="Hack" font-size="12" lengthAdjust="spacing" textLength="145.3242" x="1064.8123" y="377.498">Robot returns to 'active'</text><rect fill="#FFFFFF" height="33.9688" rx="12.5" ry="12.5" style="stroke:#000000;stroke-width:1;" width="97.3086" x="941.5037" y="349.375"/><text fill="#000000" font-family="Hack" font-size="12" lengthAdjust="spacing" textLength="77.3086" x="951.5037" y="370.5137">task.cancel()</text><polygon fill="#FFFFFF" points="868.2087,401.3281,880.2087,413.3281,868.2087,425.3281,856.2087,413.3281,868.2087,401.3281" style="stroke:#000000;stroke-width:1;"/><polygon fill="#FFFFFF" points="578.8835,775.2031,590.8835,787.2031,578.8835,799.2031,566.8835,787.2031,578.8835,775.2031" style="stroke:#000000;stroke-width:1;"/><path d="M684.3435,810.2344 L684.3435,832.1875 L664.3435,836.1875 L684.3435,840.1875 L684.3435,862.1406 A0,0 0 0 0 684.3435,862.1406 L946.8259,862.1406 A0,0 0 0 0 946.8259,862.1406 L946.8259,820.2344 L936.8259,810.2344 L684.3435,810.2344 A0,0 0 0 0 684.3435,810.2344" fill="#FFFFFF" style="stroke:#000000;stroke-width:1;"/><path d="M936.8259,810.2344 L936.8259,820.2344 L946.8259,820.2344 L936.8259,810.2344" fill="#FFFFFF" style="stroke:#000000;stroke-width:1;"/><text fill="#000000" font-family="Hack" font-size="12" lengthAdjust="spacing" textLength="241.4824" x="690.3435" y="826.373">task.status in {'completed', 'cancelled'}</text><text fill="#000000" font-family="Hack" font-size="12" lengthAdjust="spacing" textLength="209.3848" x="690.3435" y="840.3418">team.score updated (if completed)</text><text fill="#000000" font-family="Hack" font-size="12" lengthAdjust="spacing" textLength="231.0234" x="690.3435" y="854.3105">robot.status updated per battery rules</text><rect fill="#FFFFFF" height="33.9688" rx="12.5" ry="12.5" style="stroke:#000000;stroke-width:1;" width="170.9199" x="493.4236" y="819.2031"/><text fill="#000000" font-family="Hack" font-size="12" lengthAdjust="spacing" textLength="150.9199" x="503.4236" y="840.3418">Postconditions evaluated</text><ellipse cx="578.8835" cy="893.1406" fill="none" rx="11" ry="11" style="stroke:#000000;stroke-width:1;"/><ellipse cx="578.8835" cy="893.1406" fill="#FFFFFF" rx="6" ry="6" style="stroke:#000000;stroke-width:1;"/><line style="stroke:#000000;stroke-width:1;" x1="578.8835" x2="578.8835" y1="71.6094" y2="91.6094"/><polygon fill="#000000" points="574.8835,81.6094,578.8835,91.6094,582.8835,81.6094,578.8835,85.6094" style="stroke:#000000;stroke-width:1;"/><line style="stroke:#000000;stroke-width:1;" x1="289.5583" x2="289.5583" y1="227.5156" y2="251.4844"/><polygon fill="#000000" points="285.5583,241.4844,289.5583,251.4844,293.5583,241.4844,289.5583,245.4844" style="stroke:#000000;stroke-width:1;"/><line style="stroke:#000000;stroke-width:1;" x1="289.5583" x2="289.5583" y1="285.4531" y2="309.4219"/><polygon fill="#000000" points="285.5583,299.4219,289.5583,309.4219,293.5583,299.4219,289.5583,303.4219" style="stroke:#000000;stroke-width:1;"/><line style="stroke:#000000;stroke-width:1;" x1="289.5583" x2="289.5583" y1="343.3906" y2="380.375"/><polygon fill="#000000" points="285.5583,370.375,289.5583,380.375,293.5583,370.375,289.5583,374.375" style="stroke:#000000;stroke-width:1;"/><line style="stroke:#000000;stroke-width:1;" x1="289.5583" x2="289.5583" y1="414.3438" y2="445.3281"/><polygon fill="#000000" points="285.5583,435.3281,289.5583,445.3281,293.5583,435.3281,289.5583,439.3281" style="stroke:#000000;stroke-width:1;"/><line style="stroke:#000000;stroke-width:1;" x1="289.5583" x2="289.5583" y1="479.2969" y2="499.2969"/><polygon fill="#000000" points="285.5583,489.2969,289.5583,499.2969,293.5583,489.2969,289.5583,493.2969" style="stroke:#000000;stroke-width:1;"/><line style="stroke:#000000;stroke-width:1;" x1="289.5583" x2="289.5583" y1="533.2656" y2="553.2656"/><polygon fill="#000000" points="285.5583,543.2656,289.5583,553.2656,293.5583,543.2656,289.5583,547.2656" style="stroke:#000000;stroke-width:1;"/><line style="stroke:#000000;stroke-width:1;" x1="94.481" x2="65.3008" y1="653.2344" y2="653.2344"/><line style="stroke:#000000;stroke-width:1;" x1="65.3008" x2="65.3008" y1="653.2344" y2="675.2344"/><polygon fill="#000000" points="61.3008,665.2344,65.3008,675.2344,69.3008,665.2344,65.3008,669.2344" style="stroke:#000000;stroke-width:1;"/><line style="stroke:#000000;stroke-width:1;" x1="204.022" x2="233.2021" y1="653.2344" y2="653.2344"/><line style="stroke:#000000;stroke-width:1;" x1="233.2021" x2="233.2021" y1="653.2344" y2="675.2344"/><polygon fill="#000000" points="229.2021,665.2344,233.2021,675.2344,237.2021,665.2344,233.2021,669.2344" style="stroke:#000000;stroke-width:1;"/><line style="stroke:#000000;stroke-width:1;" x1="65.3008" x2="65.3008" y1="709.2031" y2="727.2031"/><line style="stroke:#000000;stroke-width:1;" x1="65.3008" x2="137.2515" y1="727.2031" y2="727.2031"/><polygon fill="#000000" points="127.2515,723.2031,137.2515,727.2031,127.2515,731.2031,131.2515,727.2031" style="stroke:#000000;stroke-width:1;"/><line style="stroke:#000000;stroke-width:1;" x1="233.2021" x2="233.2021" y1="709.2031" y2="727.2031"/><line style="stroke:#000000;stroke-width:1;" x1="233.2021" x2="161.2515" y1="727.2031" y2="727.2031"/><polygon fill="#000000" points="171.2515,723.2031,161.2515,727.2031,171.2515,731.2031,167.2515,727.2031" style="stroke:#000000;stroke-width:1;"/><line style="stroke:#000000;stroke-width:1;" x1="235.9978" x2="149.2515" y1="619.2344" y2="619.2344"/><line style="stroke:#000000;stroke-width:1;" x1="149.2515" x2="149.2515" y1="619.2344" y2="641.2344"/><polygon fill="#000000" points="145.2515,631.2344,149.2515,641.2344,153.2515,631.2344,149.2515,635.2344" style="stroke:#000000;stroke-width:1;"/><line style="stroke:#000000;stroke-width:1;" x1="343.1189" x2="429.8652" y1="619.2344" y2="619.2344"/><line style="stroke:#000000;stroke-width:1;" x1="429.8652" x2="429.8652" y1="619.2344" y2="641.2344"/><polygon fill="#000000" points="425.8652,631.2344,429.8652,641.2344,433.8652,631.2344,429.8652,635.2344" style="stroke:#000000;stroke-width:1;"/><line style="stroke:#000000;stroke-width:1;" x1="149.2515" x2="149.2515" y1="739.2031" y2="757.2031"/><line style="stroke:#000000;stroke-width:1;" x1="149.2515" x2="277.5583" y1="757.2031" y2="757.2031"/><polygon fill="#000000" points="267.5583,753.2031,277.5583,757.2031,267.5583,761.2031,271.5583,757.2031" style="stroke:#000000;stroke-width:1;"/><line style="stroke:#000000;stroke-width:1;" x1="429.8652" x2="429.8652" y1="675.2031" y2="757.2031"/><line style="stroke:#000000;stroke-width:1;" x1="429.8652" x2="301.5583" y1="757.2031" y2="757.2031"/><polygon fill="#000000" points="311.5583,753.2031,301.5583,757.2031,311.5583,761.2031,307.5583,757.2031" style="stroke:#000000;stroke-width:1;"/><line style="stroke:#000000;stroke-width:1;" x1="289.5583" x2="289.5583" y1="587.2344" y2="607.2344"/><polygon fill="#000000" points="285.5583,597.2344,289.5583,607.2344,293.5583,597.2344,289.5583,601.2344" style="stroke:#000000;stroke-width:1;"/><line style="stroke:#000000;stroke-width:1;" x1="868.2087" x2="868.2087" y1="229.5" y2="255.4531"/><polygon fill="#000000" points="864.2087,245.4531,868.2087,255.4531,872.2087,245.4531,868.2087,249.4531" style="stroke:#000000;stroke-width:1;"/><line style="stroke:#000000;stroke-width:1;" x1="756.2595" x2="746.2595" y1="325.3906" y2="325.3906"/><line style="stroke:#000000;stroke-width:1;" x1="746.2595" x2="746.2595" y1="325.3906" y2="347.3906"/><polygon fill="#000000" points="742.2595,337.3906,746.2595,347.3906,750.2595,337.3906,746.2595,341.3906" style="stroke:#000000;stroke-width:1;"/><line style="stroke:#000000;stroke-width:1;" x1="980.158" x2="990.158" y1="325.3906" y2="325.3906"/><line style="stroke:#000000;stroke-width:1;" x1="990.158" x2="990.158" y1="325.3906" y2="349.375"/><polygon fill="#000000" points="986.158,339.375,990.158,349.375,994.158,339.375,990.158,343.375" style="stroke:#000000;stroke-width:1;"/><line style="stroke:#000000;stroke-width:1;" x1="746.2595" x2="746.2595" y1="395.3281" y2="413.3281"/><line style="stroke:#000000;stroke-width:1;" x1="746.2595" x2="856.2087" y1="413.3281" y2="413.3281"/><polygon fill="#000000" points="846.2087,409.3281,856.2087,413.3281,846.2087,417.3281,850.2087,413.3281" style="stroke:#000000;stroke-width:1;"/><line style="stroke:#000000;stroke-width:1;" x1="990.158" x2="990.158" y1="383.3438" y2="413.3281"/><line style="stroke:#000000;stroke-width:1;" x1="990.158" x2="880.2087" y1="413.3281" y2="413.3281"/><polygon fill="#000000" points="890.2087,409.3281,880.2087,413.3281,890.2087,417.3281,886.2087,413.3281" style="stroke:#000000;stroke-width:1;"/><line style="stroke:#000000;stroke-width:1;" x1="868.2087" x2="868.2087" y1="289.4219" y2="313.3906"/><polygon fill="#000000" points="864.2087,303.3906,868.2087,313.3906,872.2087,303.3906,868.2087,307.3906" style="stroke:#000000;stroke-width:1;"/><line style="stroke:#000000;stroke-width:1;" x1="511.9519" x2="289.5583" y1="171.5469" y2="171.5469"/><line style="stroke:#000000;stroke-width:1;" x1="289.5583" x2="289.5583" y1="171.5469" y2="193.5469"/><polygon fill="#000000" points="285.5583,183.5469,289.5583,193.5469,293.5583,183.5469,289.5583,187.5469" style="stroke:#000000;stroke-width:1;"/><line style="stroke:#000000;stroke-width:1;" x1="645.8152" x2="868.2087" y1="171.5469" y2="171.5469"/><line style="stroke:#000000;stroke-width:1;" x1="868.2087" x2="868.2087" y1="171.5469" y2="195.5313"/><polygon fill="#000000" points="864.2087,185.5313,868.2087,195.5313,872.2087,185.5313,868.2087,189.5313" style="stroke:#000000;stroke-width:1;"/><line style="stroke:#000000;stroke-width:1;" x1="289.5583" x2="289.5583" y1="769.2031" y2="787.2031"/><line style="stroke:#000000;stroke-width:1;" x1="289.5583" x2="566.8835" y1="787.2031" y2="787.2031"/><polygon fill="#000000" points="556.8835,783.2031,566.8835,787.2031,556.8835,791.2031,560.8835,787.2031" style="stroke:#000000;stroke-width:1;"/><line style="stroke:#000000;stroke-width:1;" x1="868.2087" x2="868.2087" y1="425.3281" y2="787.2031"/><line style="stroke:#000000;stroke-width:1;" x1="868.2087" x2="590.8835" y1="787.2031" y2="787.2031"/><polygon fill="#000000" points="600.8835,783.2031,590.8835,787.2031,600.8835,791.2031,596.8835,787.2031" style="stroke:#000000;stroke-width:1;"/><line style="stroke:#000000;stroke-width:1;" x1="578.8835" x2="578.8835" y1="139.5469" y2="159.5469"/><polygon fill="#000000" points="574.8835,149.5469,578.8835,159.5469,582.8835,149.5469,578.8835,153.5469" style="stroke:#000000;stroke-width:1;"/><line style="stroke:#000000;stroke-width:1;" x1="578.8835" x2="578.8835" y1="799.2031" y2="819.2031"/><polygon fill="#000000" points="574.8835,809.2031,578.8835,819.2031,582.8835,809.2031,578.8835,813.2031" style="stroke:#000000;stroke-width:1;"/><line style="stroke:#000000;stroke-width:1;" x1="578.8835" x2="578.8835" y1="853.1719" y2="882.1406"/><polygon fill="#000000" points="574.8835,872.1406,578.8835,882.1406,582.8835,872.1406,578.8835,876.1406" style="stroke:#000000;stroke-width:1;"/><?plantuml-src hLHDSzCm4BthLoodE9Haad9Bo31Gw9bfozcZM6j7H9OyqZgGClnt9FaZJkDCBzNDshVQj_lsUGARDpvi0jyaBomluUCAlcGa3vAE_Tri1Z_lPelR5JoOhI6uCsMbaD01XoVkzZxzNYfS0Mypqwn5fEJ3yqeN7lBcf1bxHpii4KgZ3NDxgIiUw0hCUQtetcXwbCy8ozj1qEsuCB-bBY3doY5Z94dXA_qnHzmIOwicdkqmsplOSYAqHr1uG0Myu58xOh5ZKLjEqkZKmNiGraTIVu5hncGEoTSsqTLvBZE9cZvFmRUY8JcYcpBmfosb-K4MF50X0vv4WGJFHeUN1gXA1Zvr1MRx2pC2Jk1CRJCSmGfKye3MTTZnTsCNdOh9T1rljI44AuiTnSzm7f4yjG3s8wBQmGOcNPgOzB0ddrM4eeIydDULy2sbBZCMasP3ZDJKTevQn4ej4njOpmFAzMibu6O3o_KGS2eVbn0dNIVV3rpLlbml5pLSmDOANOiAgdJnJx1SNEhn4hNPm1LKh7gYO_9SIHtuT47qUmU9DbTJDA9mgSLi5uGPPceXSpR-HfTliGoBE9Z3APETftNhp9KAUKsvryJk1-37j3WFNMWmfkS3pg9_-eTQuyGjQhmo4ENIAi1p2kgrTCSry5LSxVyCyKtyWraTtDY74ujKMnrslpEO9uzLs_h8S1i_S9sXwWPqPKXNNH6JrT0LuJGID7oYoSzcTpQ_auwjcgiVnb5c_4VepW6sgoxMx0Mn8HUfuU_0en-6rFurw63Iw4veh2eWyMBqESrSpdpNuIelJITiD1WxoU_8LFy1?></g></svg>