<?plantuml 1.2026.2beta3?><svg xmlns="http://www.w3.org/2000/svg" xmlns:xlink="http://www.w3.org/1999/xlink" contentStyleType="text/css" data-diagram-type="CLASS" height="889px" preserveAspectRatio="none" style="width:804px;height:889px;background:#FFFFFF;" version="1.1" viewBox="0 0 804 889" width="804px" zoomAndPan="magnify"><defs/><g><!--class Robot--><g class="entity" data-qualified-name="Robot" data-source-line="11" id="ent0002"><rect fill="#FFFFFF" height="273.5" rx="2.5" ry="2.5" style="stroke:#000000;stroke-width:1;" width="209.3086" x="287.35" y="331.54"/><ellipse cx="368.477" cy="344.54" fill="#FFFFFF" rx="8" ry="8" style="stroke:#000000;stroke-width:1;"/><path d="M368.8207,345.7119 L365.8832,345.7119 L365.4145,347.04 L363.5238,347.04 L366.227,339.7431 L368.4613,339.7431 L371.1645,347.04 L369.2738,347.04 L368.8207,345.7119 Z M366.352,344.3525 L368.352,344.3525 L367.352,341.4619 L366.352,344.3525 Z " fill="#000000"/><text fill="#000000" font-family="Hack" font-size="12" font-style="italic" font-weight="bold" lengthAdjust="spacing" textLength="40.0547" x="384.477" y="348.6943">Robot</text><line style="stroke:#000000;stroke-width:1;" x1="288.35" x2="495.6586" y1="357.54" y2="357.54"/><text fill="#000000" font-family="Hack" font-size="12" lengthAdjust="spacing" textLength="85.8457" x="293.35" y="372.6787">-name : String</text><text fill="#000000" font-family="Hack" font-size="12" lengthAdjust="spacing" textLength="75.4453" x="293.35" y="386.6474">-battery : int</text><text fill="#000000" font-family="Hack" font-size="12" lengthAdjust="spacing" textLength="88.6875" x="293.35" y="400.6162">-status : String</text><text fill="#000000" font-family="Hack" font-size="12" lengthAdjust="spacing" textLength="128.6074" x="293.35" y="414.5849">-tasksCompleted : int</text><text fill="#000000" font-family="Hack" font-size="12" lengthAdjust="spacing" textLength="144.2402" x="293.35" y="428.5537">-sensors : List&lt;Sensor&gt;</text><line style="stroke:#000000;stroke-width:1;" x1="288.35" x2="495.6586" y1="435.3837" y2="435.3837"/><text fill="#000000" font-family="Hack" font-size="12" lengthAdjust="spacing" textLength="122.0098" x="293.35" y="450.5224">+getName() : String</text><text fill="#000000" font-family="Hack" font-size="12" lengthAdjust="spacing" textLength="110.8535" x="293.35" y="464.4912">+getBattery() : int</text><text fill="#000000" font-family="Hack" font-size="12" lengthAdjust="spacing" textLength="179.332" x="293.35" y="478.4599">+setBattery(value : int) : void</text><text fill="#000000" font-family="Hack" font-size="12" lengthAdjust="spacing" textLength="124.8457" x="293.35" y="492.4287">+getStatus() : String</text><text fill="#000000" font-family="Hack" font-size="12" lengthAdjust="spacing" textLength="193.3242" x="293.35" y="506.3974">+setStatus(value : String) : void</text><text fill="#000000" font-family="Hack" font-size="12" lengthAdjust="spacing" textLength="166.0254" x="293.35" y="520.3662">+getTasksCompleted() : int</text><text fill="#000000" font-family="Hack" font-size="12" lengthAdjust="spacing" textLength="180.3984" x="293.35" y="534.3349">+getSensors() : List&lt;Sensor&gt;</text><line style="stroke:#000000;stroke-width:1;" x1="288.35" x2="495.6586" y1="541.165" y2="541.165"/><text fill="#000000" font-family="Hack" font-size="12" lengthAdjust="spacing" textLength="187.5996" x="293.35" y="556.3037">+assignTask(task : Task) : void</text><text fill="#000000" font-family="Hack" font-size="12" lengthAdjust="spacing" textLength="197.3086" x="293.35" y="570.2724">+performTask(task : Task) : void</text><text fill="#000000" font-family="Hack" font-size="12" lengthAdjust="spacing" textLength="110.291" x="293.35" y="584.2412">+recharge() : void</text><text fill="#000000" font-family="Hack" font-size="12" font-style="italic" lengthAdjust="spacing" textLength="190.3359" x="293.35" y="598.2099">+move(direction : String) : void</text></g><!--class MobileRobot--><g class="entity" data-qualified-name="MobileRobot" data-source-line="35" id="ent0003"><rect fill="#FFFFFF" height="119.8438" rx="2.5" ry="2.5" style="stroke:#000000;stroke-width:1;" width="202.3359" x="24.83" y="713.93"/><ellipse cx="79.9003" cy="726.93" fill="#FFFFFF" rx="8" ry="8" style="stroke:#000000;stroke-width:1;"/><path d="M81.8534,730.0238 Q81.3378,730.305 80.7753,730.43 Q80.2128,730.5706 79.6034,730.5706 Q77.7753,730.5706 76.7128,729.555 Q75.6503,728.5394 75.6503,726.7894 Q75.6503,725.0394 76.7128,724.0238 Q77.7753,723.0081 79.6034,723.0081 Q80.2128,723.0081 80.7753,723.1488 Q81.3378,723.2738 81.8534,723.555 L81.8534,725.055 Q81.3222,724.6956 80.8066,724.5394 Q80.3066,724.3675 79.7441,724.3675 Q78.7441,724.3675 78.1659,725.0238 Q77.5878,725.6644 77.5878,726.7894 Q77.5878,727.9144 78.1659,728.5706 Q78.7441,729.2113 79.7441,729.2113 Q80.3066,729.2113 80.8066,729.055 Q81.3222,728.8831 81.8534,728.5238 L81.8534,730.0238 Z " fill="#000000"/><text fill="#000000" font-family="Hack" font-size="12" font-weight="bold" lengthAdjust="spacing" textLength="85.1953" x="95.9003" y="731.0843">MobileRobot</text><line style="stroke:#000000;stroke-width:1;" x1="25.83" x2="226.1659" y1="739.93" y2="739.93"/><text fill="#000000" font-family="Hack" font-size="12" lengthAdjust="spacing" textLength="120.6621" x="30.83" y="755.0687">-maxSpeed : double</text><text fill="#000000" font-family="Hack" font-size="12" lengthAdjust="spacing" textLength="121.4941" x="30.83" y="769.0374">-terrainType : String</text><line style="stroke:#000000;stroke-width:1;" x1="25.83" x2="226.1659" y1="775.8675" y2="775.8675"/><text fill="#000000" font-family="Hack" font-size="12" lengthAdjust="spacing" textLength="154.1191" x="30.83" y="791.0062">+getMaxSpeed() : double</text><text fill="#000000" font-family="Hack" font-size="12" lengthAdjust="spacing" textLength="158.9121" x="30.83" y="804.9749">+getTerrainType() : String</text><line style="stroke:#000000;stroke-width:1;" x1="25.83" x2="226.1659" y1="811.805" y2="811.805"/><text fill="#000000" font-family="Hack" font-size="12" lengthAdjust="spacing" textLength="190.3359" x="30.83" y="826.9437">+move(direction : String) : void</text></g><!--class ManipulatorRobot--><g class="entity" data-qualified-name="ManipulatorRobot" data-source-line="45" id="ent0004"><rect fill="#FFFFFF" height="147.7813" rx="2.5" ry="2.5" style="stroke:#000000;stroke-width:1;" width="259.0898" x="262.46" y="699.96"/><ellipse cx="327.5088" cy="712.96" fill="#FFFFFF" rx="8" ry="8" style="stroke:#000000;stroke-width:1;"/><path d="M329.462,716.0537 Q328.9463,716.335 328.3838,716.46 Q327.8213,716.6006 327.212,716.6006 Q325.3838,716.6006 324.3213,715.585 Q323.2588,714.5694 323.2588,712.8194 Q323.2588,711.0694 324.3213,710.0537 Q325.3838,709.0381 327.212,709.0381 Q327.8213,709.0381 328.3838,709.1787 Q328.9463,709.3037 329.462,709.585 L329.462,711.085 Q328.9307,710.7256 328.4151,710.5694 Q327.9151,710.3975 327.3526,710.3975 Q326.3526,710.3975 325.7745,711.0537 Q325.1963,711.6944 325.1963,712.8194 Q325.1963,713.9444 325.7745,714.6006 Q326.3526,715.2412 327.3526,715.2412 Q327.9151,715.2412 328.4151,715.085 Q328.9307,714.9131 329.462,714.5537 L329.462,716.0537 Z " fill="#000000"/><text fill="#000000" font-family="Hack" font-size="12" font-weight="bold" lengthAdjust="spacing" textLength="121.9922" x="343.5088" y="717.1143">ManipulatorRobot</text><line style="stroke:#000000;stroke-width:1;" x1="263.46" x2="520.5498" y1="725.96" y2="725.96"/><text fill="#000000" font-family="Hack" font-size="12" lengthAdjust="spacing" textLength="118.1543" x="268.46" y="741.0987">-armReach : double</text><text fill="#000000" font-family="Hack" font-size="12" lengthAdjust="spacing" textLength="157.0605" x="268.46" y="755.0674">-payloadCapacity : double</text><line style="stroke:#000000;stroke-width:1;" x1="263.46" x2="520.5498" y1="761.8975" y2="761.8975"/><text fill="#000000" font-family="Hack" font-size="12" lengthAdjust="spacing" textLength="153.8027" x="268.46" y="777.0362">+getArmReach() : double</text><text fill="#000000" font-family="Hack" font-size="12" lengthAdjust="spacing" textLength="191.4727" x="268.46" y="791.0049">+getPayloadCapacity() : double</text><line style="stroke:#000000;stroke-width:1;" x1="263.46" x2="520.5498" y1="797.835" y2="797.835"/><text fill="#000000" font-family="Hack" font-size="12" lengthAdjust="spacing" textLength="190.3359" x="268.46" y="812.9737">+move(direction : String) : void</text><text fill="#000000" font-family="Hack" font-size="12" lengthAdjust="spacing" textLength="163.1602" x="268.46" y="826.9424">+pickUp(obj : String) : void</text><text fill="#000000" font-family="Hack" font-size="12" lengthAdjust="spacing" textLength="247.0898" x="268.46" y="840.9112">+deliver(obj : String, zone : String) : void</text></g><!--class Sensor--><g class="entity" data-qualified-name="Sensor" data-source-line="60" id="ent0005"><rect fill="#FFFFFF" height="217.625" rx="2.5" ry="2.5" style="stroke:#000000;stroke-width:1;" width="227.168" x="556.42" y="665.04"/><ellipse cx="643.1895" cy="678.04" fill="#FFFFFF" rx="8" ry="8" style="stroke:#000000;stroke-width:1;"/><path d="M645.1427,681.1338 Q644.627,681.415 644.0645,681.54 Q643.502,681.6806 642.8927,681.6806 Q641.0645,681.6806 640.002,680.665 Q638.9395,679.6494 638.9395,677.8994 Q638.9395,676.1494 640.002,675.1338 Q641.0645,674.1181 642.8927,674.1181 Q643.502,674.1181 644.0645,674.2588 Q644.627,674.3838 645.1427,674.665 L645.1427,676.165 Q644.6114,675.8056 644.0958,675.6494 Q643.5958,675.4775 643.0333,675.4775 Q642.0333,675.4775 641.4552,676.1338 Q640.877,676.7744 640.877,677.8994 Q640.877,679.0244 641.4552,679.6806 Q642.0333,680.3213 643.0333,680.3213 Q643.5958,680.3213 644.0958,680.165 Q644.6114,679.9931 645.1427,679.6338 L645.1427,681.1338 Z " fill="#000000"/><text fill="#000000" font-family="Hack" font-size="12" font-weight="bold" lengthAdjust="spacing" textLength="46.6289" x="659.1895" y="682.1943">Sensor</text><line style="stroke:#000000;stroke-width:1;" x1="557.42" x2="782.588" y1="691.04" y2="691.04"/><text fill="#000000" font-family="Hack" font-size="12" lengthAdjust="spacing" textLength="121.0137" x="562.42" y="706.1787">-sensorType : String</text><text fill="#000000" font-family="Hack" font-size="12" lengthAdjust="spacing" textLength="102.1465" x="562.42" y="720.1474">-rangeM : double</text><text fill="#000000" font-family="Hack" font-size="12" lengthAdjust="spacing" textLength="111.041" x="562.42" y="734.1162">-accuracy : double</text><line style="stroke:#000000;stroke-width:1;" x1="557.42" x2="782.588" y1="740.9463" y2="740.9463"/><text fill="#000000" font-family="Hack" font-size="12" lengthAdjust="spacing" textLength="157.1719" x="562.42" y="756.0849">+getSensorType() : String</text><text fill="#000000" font-family="Hack" font-size="12" lengthAdjust="spacing" textLength="140.3438" x="562.42" y="770.0537">+getRangeM() : double</text><text fill="#000000" font-family="Hack" font-size="12" lengthAdjust="spacing" textLength="208.8223" x="562.42" y="784.0224">+setRangeM(value : double) : void</text><text fill="#000000" font-family="Hack" font-size="12" lengthAdjust="spacing" textLength="146.6895" x="562.42" y="797.9912">+getAccuracy() : double</text><text fill="#000000" font-family="Hack" font-size="12" lengthAdjust="spacing" textLength="215.168" x="562.42" y="811.9599">+setAccuracy(value : double) : void</text><line style="stroke:#000000;stroke-width:1;" x1="557.42" x2="782.588" y1="818.79" y2="818.79"/><text fill="#000000" font-family="Hack" font-size="12" lengthAdjust="spacing" textLength="99.2754" x="562.42" y="833.9287">+read() : double</text><text fill="#000000" font-family="Hack" font-size="12" lengthAdjust="spacing" textLength="195.7969" x="562.42" y="847.8974">+calibrate(offset : double) : void</text><text fill="#000000" font-family="Hack" font-size="12" lengthAdjust="spacing" textLength="203.3848" x="562.42" y="861.8662">+equals(other : Sensor) : boolean</text><text fill="#000000" font-family="Hack" font-size="12" lengthAdjust="spacing" textLength="114.7617" x="562.42" y="875.8349">+toString() : String</text></g><!--class Task--><g class="entity" data-qualified-name="Task" data-source-line="80" id="ent0006"><rect fill="#FFFFFF" height="259.5313" rx="2.5" ry="2.5" style="stroke:#000000;stroke-width:1;" width="210.0059" x="12" y="12"/><ellipse cx="97.7998" cy="25" fill="#FFFFFF" rx="8" ry="8" style="stroke:#000000;stroke-width:1;"/><path d="M99.7529,28.0938 Q99.2373,28.375 98.6748,28.5 Q98.1123,28.6406 97.5029,28.6406 Q95.6748,28.6406 94.6123,27.625 Q93.5498,26.6094 93.5498,24.8594 Q93.5498,23.1094 94.6123,22.0938 Q95.6748,21.0781 97.5029,21.0781 Q98.1123,21.0781 98.6748,21.2188 Q99.2373,21.3438 99.7529,21.625 L99.7529,23.125 Q99.2217,22.7656 98.7061,22.6094 Q98.2061,22.4375 97.6436,22.4375 Q96.6436,22.4375 96.0654,23.0938 Q95.4873,23.7344 95.4873,24.8594 Q95.4873,25.9844 96.0654,26.6406 Q96.6436,27.2813 97.6436,27.2813 Q98.2061,27.2813 98.7061,27.125 Q99.2217,26.9531 99.7529,26.5938 L99.7529,28.0938 Z " fill="#000000"/><text fill="#000000" font-family="Hack" font-size="12" font-weight="bold" lengthAdjust="spacing" textLength="31.4063" x="113.7998" y="29.1543">Task</text><line style="stroke:#000000;stroke-width:1;" x1="13" x2="221.0059" y1="38" y2="38"/><text fill="#000000" font-family="Hack" font-size="12" lengthAdjust="spacing" textLength="85.8457" x="18" y="53.1387">-name : String</text><text fill="#000000" font-family="Hack" font-size="12" lengthAdjust="spacing" textLength="95.1152" x="18" y="67.1074">-priority : String</text><text fill="#000000" font-family="Hack" font-size="12" lengthAdjust="spacing" textLength="115.0137" x="18" y="81.0762">-durationS : double</text><text fill="#000000" font-family="Hack" font-size="12" lengthAdjust="spacing" textLength="68.502" x="18" y="95.0449">-points : int</text><text fill="#000000" font-family="Hack" font-size="12" lengthAdjust="spacing" textLength="88.6875" x="18" y="109.0137">-status : String</text><line style="stroke:#000000;stroke-width:1;" x1="13" x2="221.0059" y1="115.8438" y2="115.8438"/><text fill="#000000" font-family="Hack" font-size="12" lengthAdjust="spacing" textLength="122.0098" x="18" y="130.9824">+getName() : String</text><text fill="#000000" font-family="Hack" font-size="12" lengthAdjust="spacing" textLength="129.5273" x="18" y="144.9512">+getPriority() : String</text><text fill="#000000" font-family="Hack" font-size="12" lengthAdjust="spacing" textLength="198.0059" x="18" y="158.9199">+setPriority(value : String) : void</text><text fill="#000000" font-family="Hack" font-size="12" lengthAdjust="spacing" textLength="151.4297" x="18" y="172.8887">+getDurationS() : double</text><text fill="#000000" font-family="Hack" font-size="12" lengthAdjust="spacing" textLength="102.9141" x="18" y="186.8574">+getPoints() : int</text><text fill="#000000" font-family="Hack" font-size="12" lengthAdjust="spacing" textLength="124.8457" x="18" y="200.8262">+getStatus() : String</text><line style="stroke:#000000;stroke-width:1;" x1="13" x2="221.0059" y1="207.6563" y2="207.6563"/><text fill="#000000" font-family="Hack" font-size="12" lengthAdjust="spacing" textLength="173.8535" x="18" y="222.7949">+assign(robot : Robot) : void</text><text fill="#000000" font-family="Hack" font-size="12" lengthAdjust="spacing" textLength="112.5352" x="18" y="236.7637">+complete() : void</text><text fill="#000000" font-family="Hack" font-size="12" lengthAdjust="spacing" textLength="95.3555" x="18" y="250.7324">+cancel() : void</text><text fill="#000000" font-family="Hack" font-size="12" lengthAdjust="spacing" textLength="146.4844" x="18" y="264.7012">+isComplete() : boolean</text></g><!--class Arena--><g class="entity" data-qualified-name="Arena" data-source-line="103" id="ent0007"><rect fill="#FFFFFF" height="259.5313" rx="2.5" ry="2.5" style="stroke:#000000;stroke-width:1;" width="270.7324" x="256.64" y="12"/><ellipse cx="368.514" cy="25" fill="#FFFFFF" rx="8" ry="8" style="stroke:#000000;stroke-width:1;"/><path d="M370.4671,28.0938 Q369.9515,28.375 369.389,28.5 Q368.8265,28.6406 368.2171,28.6406 Q366.389,28.6406 365.3265,27.625 Q364.264,26.6094 364.264,24.8594 Q364.264,23.1094 365.3265,22.0938 Q366.389,21.0781 368.2171,21.0781 Q368.8265,21.0781 369.389,21.2188 Q369.9515,21.3438 370.4671,21.625 L370.4671,23.125 Q369.9359,22.7656 369.4203,22.6094 Q368.9203,22.4375 368.3578,22.4375 Q367.3578,22.4375 366.7796,23.0938 Q366.2015,23.7344 366.2015,24.8594 Q366.2015,25.9844 366.7796,26.6406 Q367.3578,27.2813 368.3578,27.2813 Q368.9203,27.2813 369.4203,27.125 Q369.9359,26.9531 370.4671,26.5938 L370.4671,28.0938 Z " fill="#000000"/><text fill="#000000" font-family="Hack" font-size="12" font-weight="bold" lengthAdjust="spacing" textLength="39.9844" x="384.514" y="29.1543">Arena</text><line style="stroke:#000000;stroke-width:1;" x1="257.64" x2="526.3724" y1="38" y2="38"/><text fill="#000000" font-family="Hack" font-size="12" lengthAdjust="spacing" textLength="85.8457" x="262.64" y="53.1387">-name : String</text><text fill="#000000" font-family="Hack" font-size="12" lengthAdjust="spacing" textLength="89.9766" x="262.64" y="67.1074">-width : double</text><text fill="#000000" font-family="Hack" font-size="12" lengthAdjust="spacing" textLength="95.1504" x="262.64" y="81.0762">-height : double</text><text fill="#000000" font-family="Hack" font-size="12" lengthAdjust="spacing" textLength="161.0742" x="262.64" y="95.0449">-obstacles : List&lt;Position&gt;</text><text fill="#000000" font-family="Hack" font-size="12" lengthAdjust="spacing" textLength="200.0742" x="262.64" y="109.0137">-zones : Map&lt;String, Rectangle&gt;</text><line style="stroke:#000000;stroke-width:1;" x1="257.64" x2="526.3724" y1="115.8438" y2="115.8438"/><text fill="#000000" font-family="Hack" font-size="12" lengthAdjust="spacing" textLength="122.0098" x="262.64" y="130.9824">+getName() : String</text><text fill="#000000" font-family="Hack" font-size="12" lengthAdjust="spacing" textLength="126.8203" x="262.64" y="144.9512">+getWidth() : double</text><text fill="#000000" font-family="Hack" font-size="12" lengthAdjust="spacing" textLength="195.2988" x="262.64" y="158.9199">+setWidth(value : double) : void</text><text fill="#000000" font-family="Hack" font-size="12" lengthAdjust="spacing" textLength="131.3613" x="262.64" y="172.8887">+getHeight() : double</text><text fill="#000000" font-family="Hack" font-size="12" lengthAdjust="spacing" textLength="199.8398" x="262.64" y="186.8574">+setHeight(value : double) : void</text><text fill="#000000" font-family="Hack" font-size="12" lengthAdjust="spacing" textLength="197.9707" x="262.64" y="200.8262">+getObstacles() : List&lt;Position&gt;</text><text fill="#000000" font-family="Hack" font-size="12" lengthAdjust="spacing" textLength="236.7891" x="262.64" y="214.7949">+getZones() : Map&lt;String, Rectangle&gt;</text><line style="stroke:#000000;stroke-width:1;" x1="257.64" x2="526.3724" y1="221.625" y2="221.625"/><text fill="#000000" font-family="Hack" font-size="12" lengthAdjust="spacing" textLength="247.0078" x="262.64" y="236.7637">+isClear(x : double, y : double) : boolean</text><text fill="#000000" font-family="Hack" font-size="12" lengthAdjust="spacing" textLength="223.1777" x="262.64" y="250.7324">+getZone(name : String) : Rectangle</text><text fill="#000000" font-family="Hack" font-size="12" lengthAdjust="spacing" textLength="258.7324" x="262.64" y="264.7012">+addObstacle(x : double, y : double) : void</text></g><!--class Team--><g class="entity" data-qualified-name="Team" data-source-line="126" id="ent0008"><rect fill="#FFFFFF" height="231.5938" rx="2.5" ry="2.5" style="stroke:#000000;stroke-width:1;" width="235.8398" x="562.08" y="25.97"/><ellipse cx="658.037" cy="38.97" fill="#FFFFFF" rx="8" ry="8" style="stroke:#000000;stroke-width:1;"/><path d="M659.9902,42.0637 Q659.4745,42.345 658.912,42.47 Q658.3495,42.6106 657.7402,42.6106 Q655.912,42.6106 654.8495,41.595 Q653.787,40.5794 653.787,38.8294 Q653.787,37.0794 654.8495,36.0637 Q655.912,35.0481 657.7402,35.0481 Q658.3495,35.0481 658.912,35.1887 Q659.4745,35.3137 659.9902,35.595 L659.9902,37.095 Q659.4589,36.7356 658.9433,36.5794 Q658.4433,36.4075 657.8808,36.4075 Q656.8808,36.4075 656.3027,37.0637 Q655.7245,37.7044 655.7245,38.8294 Q655.7245,39.9544 656.3027,40.6106 Q656.8808,41.2512 657.8808,41.2512 Q658.4433,41.2512 658.9433,41.095 Q659.4589,40.9231 659.9902,40.5637 L659.9902,42.0637 Z " fill="#000000"/><text fill="#000000" font-family="Hack" font-size="12" font-weight="bold" lengthAdjust="spacing" textLength="36.9258" x="674.037" y="43.1243">Team</text><line style="stroke:#000000;stroke-width:1;" x1="563.08" x2="796.9198" y1="51.97" y2="51.97"/><text fill="#000000" font-family="Hack" font-size="12" lengthAdjust="spacing" textLength="118.3477" x="568.08" y="67.1087">-teamName : String</text><text fill="#000000" font-family="Hack" font-size="12" lengthAdjust="spacing" textLength="130.623" x="568.08" y="81.0774">-robots : List&lt;Robot&gt;</text><text fill="#000000" font-family="Hack" font-size="12" lengthAdjust="spacing" textLength="99.3867" x="568.08" y="95.0462">-maxRobots : int</text><text fill="#000000" font-family="Hack" font-size="12" lengthAdjust="spacing" textLength="64.1543" x="568.08" y="109.0149">-score : int</text><line style="stroke:#000000;stroke-width:1;" x1="563.08" x2="796.9198" y1="115.845" y2="115.845"/><text fill="#000000" font-family="Hack" font-size="12" lengthAdjust="spacing" textLength="155.7656" x="568.08" y="130.9837">+getTeamName() : String</text><text fill="#000000" font-family="Hack" font-size="12" lengthAdjust="spacing" textLength="168.8203" x="568.08" y="144.9524">+getRobots() : List&lt;Robot&gt;</text><text fill="#000000" font-family="Hack" font-size="12" lengthAdjust="spacing" textLength="132.8438" x="568.08" y="158.9212">+getMaxRobots() : int</text><text fill="#000000" font-family="Hack" font-size="12" lengthAdjust="spacing" textLength="100.3125" x="568.08" y="172.8899">+getScore() : int</text><line style="stroke:#000000;stroke-width:1;" x1="563.08" x2="796.9198" y1="179.72" y2="179.72"/><text fill="#000000" font-family="Hack" font-size="12" lengthAdjust="spacing" textLength="193.3711" x="568.08" y="194.8587">+addRobot(robot : Robot) : void</text><text fill="#000000" font-family="Hack" font-size="12" lengthAdjust="spacing" textLength="216.6152" x="568.08" y="208.8274">+removeRobot(robot : Robot) : void</text><text fill="#000000" font-family="Hack" font-size="12" lengthAdjust="spacing" textLength="118.5879" x="568.08" y="222.7962">+totalBattery() : int</text><text fill="#000000" font-family="Hack" font-size="12" lengthAdjust="spacing" textLength="223.8398" x="568.08" y="236.7649">+getAvailableRobots() : List&lt;Robot&gt;</text><text fill="#000000" font-family="Hack" font-size="12" lengthAdjust="spacing" textLength="196.8105" x="568.08" y="250.7337">+updateScore(points : int) : void</text></g><!--reverse link Robot to MobileRobot--><g class="link" data-entity-1="ent0002" data-entity-2="ent0003" data-link-type="extension" data-source-line="149" id="lnk9"><path codeLine="149" d="M268.9,514.66 C206.04,514.66 156.28,514.66 156.28,514.66 C156.28,514.66 156.28,637.17 156.28,713.73" fill="none" id="Robot-backto-MobileRobot" style="stroke:#000000;stroke-width:1;"/><polygon fill="none" points="286.9,514.66,268.9,508.66,268.9,520.66,286.9,514.66" style="stroke:#000000;stroke-width:1;"/></g><!--reverse link Robot to ManipulatorRobot--><g class="link" data-entity-1="ent0002" data-entity-2="ent0004" data-link-type="extension" data-source-line="150" id="lnk10"><path codeLine="150" d="M357.12,623.42 C357.12,655.79 357.12,671.1 357.12,699.47" fill="none" id="Robot-backto-ManipulatorRobot" style="stroke:#000000;stroke-width:1;"/><polygon fill="none" points="357.12,605.42,351.12,623.42,363.12,623.42,357.12,605.42" style="stroke:#000000;stroke-width:1;"/></g><!--reverse link Robot to Sensor--><g class="link" data-entity-1="ent0002" data-entity-2="ent0005" data-link-type="composition" data-source-line="153" id="lnk11"><path codeLine="153" d="M426.89,617.27 C426.89,659.28 426.89,682.66 426.89,682.66 C426.89,682.66 492.75,682.66 555.92,682.66" fill="none" id="Robot-backto-Sensor" style="stroke:#000000;stroke-width:1;"/><polygon fill="#000000" points="426.89,605.27,422.89,611.27,426.89,617.27,430.89,611.27,426.89,605.27" style="stroke:#000000;stroke-width:1;"/><polygon fill="#000000" points="415.278,677.4526,409.8863,672.0843,407.7606,676.2787,415.278,677.4526" style="stroke:#000000;stroke-width:1;"/><text fill="#000000" font-family="Hack" font-size="12" lengthAdjust="spacing" textLength="31.0137" x="420.71" y="679.7987">owns</text><text fill="#000000" font-family="Hack" font-size="12" lengthAdjust="spacing" textLength="21.2637" x="527.3362" y="674.8751">1..*</text></g><!--reverse link Team to Robot--><g class="link" data-entity-1="ent0008" data-entity-2="ent0002" data-link-type="aggregation" data-source-line="156" id="lnk12"><path codeLine="156" d="M672.83,269.94 C672.83,363.9 672.83,468.66 672.83,468.66 C672.83,468.66 576.74,468.66 496.97,468.66" fill="none" id="Team-backto-Robot" style="stroke:#000000;stroke-width:1;"/><polygon fill="none" points="672.83,257.94,668.83,263.94,672.83,269.94,676.83,263.94,672.83,257.94" style="stroke:#000000;stroke-width:1;"/><polygon fill="#000000" points="605.1791,447.2098,611.7353,443.3491,608.2139,440.2328,605.1791,447.2098" style="stroke:#000000;stroke-width:1;"/><text fill="#000000" font-family="Hack" font-size="12" lengthAdjust="spacing" textLength="55.2539" x="616.83" y="448.3687">manages</text><text fill="#000000" font-family="Hack" font-size="12" lengthAdjust="spacing" textLength="21.2637" x="504.7367" y="466.4194">1..*</text></g><!--link Task to Robot--><g class="link" data-entity-1="ent0006" data-entity-2="ent0002" data-link-type="association" data-source-line="159" id="lnk13"><path codeLine="159" d="M90.56,271.99 C90.56,345.85 90.56,423.66 90.56,423.66 C90.56,423.66 200,423.66 287,423.66" fill="none" id="Task-Robot" style="stroke:#000000;stroke-width:1;"/><polygon fill="#000000" points="37.1061,419.0889,32.8154,412.8057,29.9417,416.5277,37.1061,419.0889" style="stroke:#000000;stroke-width:1;"/><text fill="#000000" font-family="Hack" font-size="12" lengthAdjust="spacing" textLength="69.2754" x="42.94" y="420.7987">assigned to</text><text fill="#000000" font-family="Hack" font-size="12" lengthAdjust="spacing" textLength="21.2637" x="67.5469" y="290.6323">0..*</text><text fill="#000000" font-family="Hack" font-size="12" lengthAdjust="spacing" textLength="22.8984" x="256.5139" y="418.0794">0..1</text></g><!--link Arena to Robot--><g class="link" data-entity-1="ent0007" data-entity-2="ent0002" data-link-type="association" data-source-line="162" id="lnk14"><path codeLine="162" d="M392,271.76 C392,291.32 392,311.55 392,331.25" fill="none" id="Arena-Robot" style="stroke:#000000;stroke-width:1;"/><polygon fill="#000000" points="332,298.4844,334.3511,291.2483,329.6489,291.2483,332,298.4844" style="stroke:#000000;stroke-width:1;"/><text fill="#000000" font-family="Hack" font-size="12" lengthAdjust="spacing" textLength="50.7949" x="341" y="298.6387">contains</text><text fill="#000000" font-family="Hack" font-size="12" lengthAdjust="spacing" textLength="7.6348" x="384.8156" y="290.8178">1</text><text fill="#000000" font-family="Hack" font-size="12" lengthAdjust="spacing" textLength="21.2637" x="370.3679" y="320.6712">0..*</text></g><?plantuml-src jLVTRzis47_tNy7bPUg7YsQFGHh0pJ2imD85TeO1Upj9PvaBpTD8AgcRzdyVloHJicAdYECNstV7tzsHFzuTzIsNDIXOiqA0rZDZ5CyRWvyAaWl-5TdxYUwR_4RIBCn68Cj9b8csn2KqmdYzMtdwIwBKAoZfdikABK5eJ3I2IpIR6XafiwB9JsQ5QsHhaZIP_Cm-FEDZbyzoRHGKXdq4ZUpInN_6vfIJUIusjCX-Km8cUvWm-vao2JQ5CxQmcochACl165GRA-RIH9asO1ezj3IWR_KbhMk11il-0fIQb5ln1zVcVE7_NWJbr7-zOHMQpzP_zggFwnKVGn1UrwA-iQYTuWv4Wq7fREw8bzlL2n_kBh3kLEtoeDv5kEcbDWZ3UGZvUSNZ6TeDvvLqM9dRAslhVW-yrQYMfDO7h1GMAr1LsAr4_j2UxtTBnJlCIcuj3IUvczpt8_1qqUIUHwYVYnNeU4Kv5zWdvHg-B6hqX2gfoGMsT4EbWCiRTmVxJ4mOTHKN-trAbeTJtI8CoT5XF64NO-WWUTq8CAJwyODQpn6ArJ3-6ZQ2eBo46WfkDWDraiCi0epcSDr76TeyEOz8FbxS_bLdbF_xc4M9Wj-XwfcyPLz9uWinp5yabhdBHvhxuE-vMONAzUeuj8jE7dhLQeHOJ86iy6fuab0KZRrpUuvmqI6EbhUvXzqzNzsfsW8LrBi5QXP36CNeb7jGkcWLmiXjAK3mN871Z9PB2_bOAFXVO_jaHhORAfUepzlPv4G2GKOpGs4Bqjqu1bjSfMJPJ6igEBmCLxoBVGspLfnKkD0zUMdFm8Mqs2a4P7k9FjnWdz8ehwFpqMRNAG-rkr_RKCTBZeztf0cEjjb1zykKBuvncXcuBcA77NQr0cI1OYZbNKVEKeOTWqSpXH9Uc4Z1npuctVFIxBID5V9gPOPIicqV2e7TY7KTYsKSGNo5TiehgC_RgZstpS2M5u4_C8dzxM8QhJ91SwXG_Ux37mM8gaC8VxQfRgUjVhBUwX-NhxTuIiQMIfOxAllI-NtBDhqO-lKhEiXwf-RCEWSjwSkoZNSF-D6wvGtQbqasgog5rKlLF-VYePl1OFrvXBd-adTSzEuljkFSlDKc1QyWXQbacevfmSbuw_HOMoealje1C37froldioVUrggozAlsLYk5RgWwR6V8W1X_mRZEVGTSG1wdtiSoQUhIDjyGSTelZigUEGfF6htYzRC7Uhl-axHJ03UkU4_2J7p-RJfDX_oUU310EuHawejxo-XUjWERZijVszKdf-_UlJvf9xcpO7RXC9BRS1ROkmO95SR7hvvu6Mqnvl4iMxE0icq5uK4M-vbzbnYAJtClFddlGHoS_NMwXKljTo53DoX86liYwK8BqfFJ3Yy9hxEz-1y0?></g></svg>