<?plantuml 1.2026.2beta3?><svg xmlns="http://www.w3.org/2000/svg" xmlns:xlink="http://www.w3.org/1999/xlink" contentStyleType="text/css" data-diagram-type="SEQUENCE" height="938px" preserveAspectRatio="none" style="width:760px;height:938px;background:#FFFFFF;" version="1.1" viewBox="0 0 760 938" width="760px" zoomAndPan="magnify"><title>UC-01: Assign a Task to a Robot</title><defs/><g><text fill="#000000" font-family="Hack" font-size="22" font-weight="bold" lengthAdjust="spacing" textLength="397.0098" x="185.3271" y="35.4209">UC-01: Assign a Task to a Robot</text><g><title>.Team</title><rect fill="#FFFFFF" height="27.9688" style="stroke:#000000;stroke-width:1;" width="10" x="292.5049" y="170.5156"/></g><g><title>.Robot</title><rect fill="#FFFFFF" height="204.7813" style="stroke:#000000;stroke-width:1;" width="10" x="375.0977" y="407.2656"/></g><g><title>.Task</title><rect fill="#FFFFFF" height="349.6563" style="stroke:#000000;stroke-width:1;" width="10" x="555.7285" y="338.3281"/></g><rect fill="#FFFFFF" height="464.5" style="stroke:#000000;stroke-width:1;" width="738.6641" x="15" y="302.3906"/><rect fill="#FFFFFF" height="156.8125" style="stroke:#000000;stroke-width:1;" width="578.6924" x="25" y="463.2344"/><rect fill="#FFFFFF" height="84.9063" style="stroke:none;stroke-width:1;" width="578.6924" x="25" y="535.1406"/><rect fill="#FFFFFF" height="70.9063" style="stroke:none;stroke-width:1;" width="738.6641" x="15" y="695.9844"/><g class="participant-lifeline" data-entity-uid="part1" data-qualified-name="Manager" id="part1-lifeline"><g><title>Team Manager</title><rect fill="#000000" fill-opacity="0.00000" height="705.25" width="8" x="79.085" y="140.5469"/><line style="stroke:#000000;stroke-width:1;stroke-dasharray:5,5;" x1="83" x2="83" y1="140.5469" y2="845.7969"/></g></g><g class="participant-lifeline" data-entity-uid="part2" data-qualified-name="Team" id="part2-lifeline"><g><title>.Team</title><rect fill="#000000" fill-opacity="0.00000" height="705.25" width="8" x="293.5049" y="140.5469"/><line style="stroke:#000000;stroke-width:1;stroke-dasharray:5,5;" x1="296.6055" x2="296.6055" y1="140.5469" y2="845.7969"/></g></g><g class="participant-lifeline" data-entity-uid="part3" data-qualified-name="Robot" id="part3-lifeline"><g><title>.Robot</title><rect fill="#000000" fill-opacity="0.00000" height="705.25" width="8" x="376.0977" y="140.5469"/><line style="stroke:#000000;stroke-width:1;stroke-dasharray:5,5;" x1="379.4043" x2="379.4043" y1="140.5469" y2="845.7969"/></g></g><g class="participant-lifeline" data-entity-uid="part4" data-qualified-name="Task" id="part4-lifeline"><g><title>.Task</title><rect fill="#000000" fill-opacity="0.00000" height="705.25" width="8" x="556.7285" y="140.5469"/><line style="stroke:#000000;stroke-width:1;stroke-dasharray:5,5;" x1="559.7646" x2="559.7646" y1="140.5469" y2="845.7969"/></g></g><g class="participant participant-head" data-entity-uid="part1" data-qualified-name="Manager" id="part1-head"><text fill="#000000" font-family="Hack" font-size="12" lengthAdjust="spacing" textLength="90.1699" x="35" y="123.748">Team Manager</text><text fill="#000000" font-family="Hack" font-size="12" lengthAdjust="spacing" textLength="59.9063" x="50.1318" y="137.7168">(via code)</text><ellipse cx="83.085" cy="60.6094" fill="#FFFFFF" rx="8" ry="8" style="stroke:#000000;stroke-width:1;"/><path d="M83.085,68.6094 L83.085,95.6094 M70.085,76.6094 L96.085,76.6094 M83.085,95.6094 L70.085,110.6094 M83.085,95.6094 L96.085,110.6094" fill="none" style="stroke:#000000;stroke-width:1;"/></g><g class="participant participant-tail" data-entity-uid="part1" data-qualified-name="Manager" id="part1-tail"><text fill="#000000" font-family="Hack" font-size="12" lengthAdjust="spacing" textLength="90.1699" x="35" y="855.9355">Team Manager</text><text fill="#000000" font-family="Hack" font-size="12" lengthAdjust="spacing" textLength="59.9063" x="50.1318" y="869.9043">(via code)</text><ellipse cx="83.085" cy="881.7344" fill="#FFFFFF" rx="8" ry="8" style="stroke:#000000;stroke-width:1;"/><path d="M83.085,889.7344 L83.085,916.7344 M70.085,897.7344 L96.085,897.7344 M83.085,916.7344 L70.085,931.7344 M83.085,916.7344 L96.085,931.7344" fill="none" style="stroke:#000000;stroke-width:1;"/></g><g class="participant participant-head" data-entity-uid="part2" data-qualified-name="Team" id="part2-head"><rect fill="#FFFFFF" height="27.9688" rx="2.5" ry="2.5" style="stroke:#000000;stroke-width:1;" width="51.7988" x="271.6055" y="111.5781"/><text fill="#000000" font-family="Hack" font-size="12" lengthAdjust="spacing" textLength="37.7988" x="278.6055" y="129.7168">:Team</text></g><g class="participant participant-tail" data-entity-uid="part2" data-qualified-name="Team" id="part2-tail"><rect fill="#FFFFFF" height="27.9688" rx="2.5" ry="2.5" style="stroke:#000000;stroke-width:1;" width="51.7988" x="271.6055" y="844.7969"/><text fill="#000000" font-family="Hack" font-size="12" lengthAdjust="spacing" textLength="37.7988" x="278.6055" y="862.9355">:Team</text></g><g class="participant participant-head" data-entity-uid="part3" data-qualified-name="Robot" id="part3-head"><rect fill="#FFFFFF" height="27.9688" rx="2.5" ry="2.5" style="stroke:#000000;stroke-width:1;" width="53.3867" x="353.4043" y="111.5781"/><text fill="#000000" font-family="Hack" font-size="12" lengthAdjust="spacing" textLength="39.3867" x="360.4043" y="129.7168">:Robot</text></g><g class="participant participant-tail" data-entity-uid="part3" data-qualified-name="Robot" id="part3-tail"><rect fill="#FFFFFF" height="27.9688" rx="2.5" ry="2.5" style="stroke:#000000;stroke-width:1;" width="53.3867" x="353.4043" y="844.7969"/><text fill="#000000" font-family="Hack" font-size="12" lengthAdjust="spacing" textLength="39.3867" x="360.4043" y="862.9355">:Robot</text></g><g class="participant participant-head" data-entity-uid="part4" data-qualified-name="Task" id="part4-head"><rect fill="#FFFFFF" height="27.9688" rx="2.5" ry="2.5" style="stroke:#000000;stroke-width:1;" width="45.9277" x="537.7646" y="111.5781"/><text fill="#000000" font-family="Hack" font-size="12" lengthAdjust="spacing" textLength="31.9277" x="544.7646" y="129.7168">:Task</text></g><g class="participant participant-tail" data-entity-uid="part4" data-qualified-name="Task" id="part4-tail"><rect fill="#FFFFFF" height="27.9688" rx="2.5" ry="2.5" style="stroke:#000000;stroke-width:1;" width="45.9277" x="537.7646" y="844.7969"/><text fill="#000000" font-family="Hack" font-size="12" lengthAdjust="spacing" textLength="31.9277" x="544.7646" y="862.9355">:Task</text></g><g><title>.Team</title><rect fill="#FFFFFF" height="27.9688" style="stroke:#000000;stroke-width:1;" width="10" x="292.5049" y="170.5156"/></g><g><title>.Robot</title><rect fill="#FFFFFF" height="204.7813" style="stroke:#000000;stroke-width:1;" width="10" x="375.0977" y="407.2656"/></g><g><title>.Task</title><rect fill="#FFFFFF" height="349.6563" style="stroke:#000000;stroke-width:1;" width="10" x="555.7285" y="338.3281"/></g><g class="message" data-entity-1="part1" data-entity-2="part2" id="msg1"><polygon fill="#000000" points="280.5049,166.5156,290.5049,170.5156,280.5049,174.5156,284.5049,170.5156" style="stroke:#000000;stroke-width:1;"/><line style="stroke:#000000;stroke-width:1;" x1="83.085" x2="286.5049" y1="170.5156" y2="170.5156"/><text fill="#000000" font-family="Hack" font-size="12" lengthAdjust="spacing" textLength="133.4238" x="121.083" y="165.6855">get_available_robots()</text></g><g class="message" data-entity-1="part2" data-entity-2="part1" id="msg2"><polygon fill="#000000" points="94.085,194.4844,84.085,198.4844,94.085,202.4844,90.085,198.4844" style="stroke:#000000;stroke-width:1;"/><line style="stroke:#000000;stroke-width:1;stroke-dasharray:2,2;" x1="88.085" x2="296.5049" y1="198.4844" y2="198.4844"/><text fill="#000000" font-family="Hack" font-size="12" lengthAdjust="spacing" textLength="185.4199" x="97.585" y="193.6543">list[Robot] with status='active'</text></g><g class="message" data-entity-1="part1" data-entity-2="part1" id="msg3"><line style="stroke:#000000;stroke-width:1;" x1="83.085" x2="125.085" y1="226.4531" y2="226.4531"/><line style="stroke:#000000;stroke-width:1;" x1="125.085" x2="125.085" y1="226.4531" y2="239.4531"/><line style="stroke:#000000;stroke-width:1;" x1="84.085" x2="125.085" y1="239.4531" y2="239.4531"/><polygon fill="#000000" points="94.085,235.4531,84.085,239.4531,94.085,243.4531,90.085,239.4531" style="stroke:#000000;stroke-width:1;"/><text fill="#000000" font-family="Hack" font-size="12" lengthAdjust="spacing" textLength="134.7891" x="90.085" y="221.623">select candidate robot</text></g><path d="M88,252.4531 L88,289.4531 L275,289.4531 L275,262.4531 L265,252.4531 L88,252.4531" fill="#FFFFFF" style="stroke:#000000;stroke-width:1;"/><path d="M265,252.4531 L265,262.4531 L275,262.4531 L265,252.4531" fill="#FFFFFF" style="stroke:#000000;stroke-width:1;"/><text fill="#000000" font-family="Hack" font-size="12" lengthAdjust="spacing" textLength="144.2051" x="94" y="268.5918">Check robot.battery &gt;=</text><text fill="#000000" font-family="Hack" font-size="12" lengthAdjust="spacing" textLength="166.6699" x="94" y="282.5605">task.duration_s * drain_rate</text><path d="M15,302.3906 L77.9473,302.3906 L77.9473,308.3594 L67.9473,318.3594 L15,318.3594 L15,302.3906" fill="#FFFFFF" style="stroke:#000000;stroke-width:1;"/><rect fill="none" height="464.5" style="stroke:#000000;stroke-width:1;" width="738.6641" x="15" y="302.3906"/><text fill="#000000" font-family="Hack" font-size="12" font-weight="bold" lengthAdjust="spacing" textLength="17.9473" x="30" y="314.5293">alt</text><text fill="#000000" font-family="Hack" font-size="12" font-weight="bold" lengthAdjust="spacing" textLength="238.4004" x="92.9473" y="315.5293">[robot.battery &gt;= estimated drain]</text><g class="message" data-entity-1="part1" data-entity-2="part4" id="msg4"><polygon fill="#000000" points="543.7285,334.3281,553.7285,338.3281,543.7285,342.3281,547.7285,338.3281" style="stroke:#000000;stroke-width:1;"/><line style="stroke:#000000;stroke-width:1;" x1="83.085" x2="549.7285" y1="338.3281" y2="338.3281"/><text fill="#000000" font-family="Hack" font-size="12" lengthAdjust="spacing" textLength="79.7168" x="279.5483" y="333.498">assign(robot)</text></g><g class="message" data-entity-1="part4" data-entity-2="part4" id="msg5"><line style="stroke:#000000;stroke-width:1;" x1="565.7285" x2="607.7285" y1="366.2969" y2="366.2969"/><line style="stroke:#000000;stroke-width:1;" x1="607.7285" x2="607.7285" y1="366.2969" y2="379.2969"/><line style="stroke:#000000;stroke-width:1;" x1="566.7285" x2="607.7285" y1="379.2969" y2="379.2969"/><polygon fill="#000000" points="576.7285,375.2969,566.7285,379.2969,576.7285,383.2969,572.7285,379.2969" style="stroke:#000000;stroke-width:1;"/><text fill="#000000" font-family="Hack" font-size="12" lengthAdjust="spacing" textLength="158.9355" x="572.7285" y="361.4668">check status == 'pending'</text></g><g class="message" data-entity-1="part4" data-entity-2="part3" id="msg6"><polygon fill="#000000" points="396.0977,403.2656,386.0977,407.2656,396.0977,411.2656,392.0977,407.2656" style="stroke:#000000;stroke-width:1;"/><line style="stroke:#000000;stroke-width:1;" x1="390.0977" x2="554.7285" y1="407.2656" y2="407.2656"/><text fill="#000000" font-family="Hack" font-size="12" lengthAdjust="spacing" textLength="104.2969" x="418.2646" y="402.4355">assign_task(task)</text></g><g class="message" data-entity-1="part3" data-entity-2="part3" id="msg7"><line style="stroke:#000000;stroke-width:1;" x1="385.0977" x2="427.0977" y1="435.2344" y2="435.2344"/><line style="stroke:#000000;stroke-width:1;" x1="427.0977" x2="427.0977" y1="435.2344" y2="448.2344"/><line style="stroke:#000000;stroke-width:1;" x1="386.0977" x2="427.0977" y1="448.2344" y2="448.2344"/><polygon fill="#000000" points="396.0977,444.2344,386.0977,448.2344,396.0977,452.2344,392.0977,448.2344" style="stroke:#000000;stroke-width:1;"/><text fill="#000000" font-family="Hack" font-size="12" lengthAdjust="spacing" textLength="146.6309" x="392.0977" y="430.4043">check status == 'active'</text></g><path d="M25,463.2344 L87.9473,463.2344 L87.9473,469.2031 L77.9473,479.2031 L25,479.2031 L25,463.2344" fill="#FFFFFF" style="stroke:#000000;stroke-width:1;"/><rect fill="none" height="156.8125" style="stroke:#000000;stroke-width:1;" width="578.6924" x="25" y="463.2344"/><text fill="#000000" font-family="Hack" font-size="12" font-weight="bold" lengthAdjust="spacing" textLength="17.9473" x="40" y="475.373">alt</text><text fill="#000000" font-family="Hack" font-size="12" font-weight="bold" lengthAdjust="spacing" textLength="125.6191" x="102.9473" y="476.373">[status != 'active']</text><g class="message" data-entity-1="part3" data-entity-2="part4" id="msg8"><polygon fill="#000000" points="543.7285,495.1719,553.7285,499.1719,543.7285,503.1719,547.7285,499.1719" style="stroke:#000000;stroke-width:1;"/><line style="stroke:#000000;stroke-width:1;stroke-dasharray:2,2;" x1="385.0977" x2="549.7285" y1="499.1719" y2="499.1719"/><text fill="#000000" font-family="Hack" font-size="12" lengthAdjust="spacing" textLength="113.4551" x="413.6855" y="494.3418">raise RuntimeError</text></g><g class="message" data-entity-1="part4" data-entity-2="part1" id="msg9"><polygon fill="#000000" points="94.085,523.1406,84.085,527.1406,94.085,531.1406,90.085,527.1406" style="stroke:#000000;stroke-width:1;"/><line style="stroke:#000000;stroke-width:1;stroke-dasharray:2,2;" x1="88.085" x2="554.7285" y1="527.1406" y2="527.1406"/><text fill="#000000" font-family="Hack" font-size="12" lengthAdjust="spacing" textLength="146.1211" x="246.3462" y="522.3105">propagate RuntimeError</text></g><line style="stroke:#000000;stroke-width:1;stroke-dasharray:2,2;" x1="25" x2="603.6924" y1="536.1406" y2="536.1406"/><text fill="#000000" font-family="Hack" font-size="12" font-weight="bold" lengthAdjust="spacing" textLength="130.2012" x="30" y="547.2793">[status == 'active']</text><g class="message" data-entity-1="part3" data-entity-2="part3" id="msg10"><line style="stroke:#000000;stroke-width:1;" x1="385.0977" x2="427.0977" y1="571.0781" y2="571.0781"/><line style="stroke:#000000;stroke-width:1;" x1="427.0977" x2="427.0977" y1="571.0781" y2="584.0781"/><line style="stroke:#000000;stroke-width:1;" x1="386.0977" x2="427.0977" y1="584.0781" y2="584.0781"/><polygon fill="#000000" points="396.0977,580.0781,386.0977,584.0781,396.0977,588.0781,392.0977,584.0781" style="stroke:#000000;stroke-width:1;"/><text fill="#000000" font-family="Hack" font-size="12" lengthAdjust="spacing" textLength="89.7305" x="392.0977" y="566.248">status = 'busy'</text></g><g class="message" data-entity-1="part3" data-entity-2="part4" id="msg11"><polygon fill="#000000" points="543.7285,608.0469,553.7285,612.0469,543.7285,616.0469,547.7285,612.0469" style="stroke:#000000;stroke-width:1;"/><line style="stroke:#000000;stroke-width:1;stroke-dasharray:2,2;" x1="380.0977" x2="549.7285" y1="612.0469" y2="612.0469"/><text fill="#000000" font-family="Hack" font-size="12" lengthAdjust="spacing" textLength="31.3066" x="452.2598" y="607.2168">None</text></g><g class="message" data-entity-1="part4" data-entity-2="part4" id="msg12"><line style="stroke:#000000;stroke-width:1;" x1="565.7285" x2="607.7285" y1="647.0156" y2="647.0156"/><line style="stroke:#000000;stroke-width:1;" x1="607.7285" x2="607.7285" y1="647.0156" y2="660.0156"/><line style="stroke:#000000;stroke-width:1;" x1="566.7285" x2="607.7285" y1="660.0156" y2="660.0156"/><polygon fill="#000000" points="576.7285,656.0156,566.7285,660.0156,576.7285,664.0156,572.7285,660.0156" style="stroke:#000000;stroke-width:1;"/><text fill="#000000" font-family="Hack" font-size="12" lengthAdjust="spacing" textLength="130.4238" x="572.7285" y="642.1855">status = 'in_progress'</text></g><g class="message" data-entity-1="part4" data-entity-2="part1" id="msg13"><polygon fill="#000000" points="94.085,683.9844,84.085,687.9844,94.085,691.9844,90.085,687.9844" style="stroke:#000000;stroke-width:1;"/><line style="stroke:#000000;stroke-width:1;stroke-dasharray:2,2;" x1="88.085" x2="559.7285" y1="687.9844" y2="687.9844"/><text fill="#000000" font-family="Hack" font-size="12" lengthAdjust="spacing" textLength="31.3066" x="306.2534" y="683.1543">None</text></g><line style="stroke:#000000;stroke-width:1;stroke-dasharray:2,2;" x1="15" x2="753.6641" y1="696.9844" y2="696.9844"/><text fill="#000000" font-family="Hack" font-size="12" font-weight="bold" lengthAdjust="spacing" textLength="228.3457" x="20" y="708.123">[robot.battery &lt; estimated drain]</text><g class="message" data-entity-1="part1" data-entity-2="part1" id="msg14"><line style="stroke:#000000;stroke-width:1;" x1="83.085" x2="125.085" y1="745.8906" y2="745.8906"/><line style="stroke:#000000;stroke-width:1;" x1="125.085" x2="125.085" y1="745.8906" y2="758.8906"/><line style="stroke:#000000;stroke-width:1;" x1="84.085" x2="125.085" y1="758.8906" y2="758.8906"/><polygon fill="#000000" points="94.085,754.8906,84.085,758.8906,94.085,762.8906,90.085,758.8906" style="stroke:#000000;stroke-width:1;"/><text fill="#000000" font-family="Hack" font-size="12" lengthAdjust="spacing" textLength="134.0039" x="90.085" y="727.0918">skip to next candidate</text><text fill="#000000" font-family="Hack" font-size="12" lengthAdjust="spacing" textLength="129.5449" x="92.3145" y="741.0605">or raise RuntimeError</text></g><path d="M347,778.8906 L347,829.8906 L592,829.8906 L592,788.8906 L582,778.8906 L347,778.8906" fill="#FFFFFF" style="stroke:#000000;stroke-width:1;"/><path d="M582,778.8906 L582,788.8906 L592,788.8906 L582,778.8906" fill="#FFFFFF" style="stroke:#000000;stroke-width:1;"/><text fill="#000000" font-family="Hack" font-size="12" font-weight="bold" lengthAdjust="spacing" textLength="105.0996" x="380.3677" y="795.0293">Postconditions:</text><text fill="#000000" font-family="Hack" font-size="12" lengthAdjust="spacing" textLength="169.5527" x="380.3677" y="808.998">task.status == 'in_progress'</text><text fill="#000000" font-family="Hack" font-size="12" lengthAdjust="spacing" textLength="135.5391" x="380.3677" y="822.9668">robot.status == 'busy'</text><?plantuml-src XLHDRzim3BthLx2vE0sMOjtHM0eKnNRhC6pTQHq2ncOS8OxaINIwxjUFaf9O-TYMGo28VE-HZvIlU4KRWeqrLlcrDXqwt41DI-nR_cWDVzM_2MxVPK6_mjg-QDF04bjFUOH-zcGgUYJliQ7xLZS6AZ9CJYdMt19yUvY-lItXtliGGtX2lmQsSlfY5vQLmegjWz4J2TyZ6g5npsQyrGYLhUbw1EZtzqfKMLUwGyCmAWCaXiFX91R9Op39d22bY8IKWr8xUfZUHIeeeI6UunPrYukMvYvG-F5rg5LlaIafnjofWFRu4bhj-NjK_04lcbVW6Rdtio8YgL0r7NFasWEDfvOgXWfDhUkGwv9NneQpRbOCTdbm1UJtiA9gdT9k5iWoW5Uucq6CiJHvK_SEMLipzp21sg4sSxaWHQQ6G2k3QFcSW3phZUJL2HFvShl2D4jnCant7D7NCMVeCZeShcBkWAbYnSaVcCsWwAGKMRBYE3kQUP2OXrx6uUz4PhTCuIuXCkYPqduOYKBQtiMkiXZiVZkseMwnmOjURyGO-k2STOVSLFFH93jdEsnYXQS8ahTqgQeJvQ6FVIuKYzw__gF4JzRG8PfjN38fQflwub062TaFgRrnyh8BzPVc3ZhvLiTvnzwEb-dz_tOfM_-rxi8tmj2lx14y6_bEN70_zX9VXjqAF1Jm9cjrClbiFLTMMCB--t8o6Lv5PlzPmwdyB2EvldymVm00?></g></svg>